<?xml version="1.0" encoding="UTF-8"?>
<!DOCTYPE svg PUBLIC "-//W3C//DTD SVG 1.1//EN" "http://www.w3.org/Graphics/SVG/1.1/DTD/svg11.dtd">
<svg xmlns="http://www.w3.org/2000/svg" version="1.1" width="363" height="375" font-size="12">
    <g>
        <g transform="translate(73, 0)">
            <polygon points="0,123 71,0 142,123" fill="gray" stroke="black" stroke-width="1"/>
            <text x="15" y="115" fill="blue">4</text>
            <text x="67" y="20" fill="blue">0</text>
            <text x="118" y="115" fill="blue">4</text>
        </g>

        <g transform="translate(146, 0)">
            <polygon points="0,0 71,123 142,0" fill="none" stroke="black" stroke-width="1"/>
            <text x="15" y="20" fill="blue">0</text>
            <text x="67" y="105" fill="blue">4</text>
            <text x="118" y="20" fill="blue">1</text>
        </g>

        <g transform="translate(219, 0)">
            <polygon points="0,123 71,0 142,123" fill="none" stroke="black" stroke-width="1"/>
            <text x="15" y="115" fill="blue">4</text>
            <text x="67" y="20" fill="blue">1</text>
            <text x="118" y="115" fill="blue">4</text>
        </g>
    </g>
    <g transform="translate(-73, 125)">
        <g transform="translate(73, 0)">
            <polygon points="0,123 71,0 142,123" fill="none" stroke="black" stroke-width="1"/>
            <text x="15" y="115" fill="blue">3</text>
            <text x="67" y="20" fill="blue">4</text>
            <text x="118" y="115" fill="blue">3</text>
        </g>
        <g transform="translate(219, 0)">
            <polygon points="0,123 71,0 142,123" fill="none" stroke="black" stroke-width="1"/>
            <text x="15" y="115" fill="blue">3</text>
            <text x="67" y="20" fill="blue">4</text>
            <text x="118" y="115" fill="blue">5</text>
        </g>

        <g transform="translate(292, 0)">
            <polygon points="0,0 71,123 142,0" fill="none" stroke="black" stroke-width="1"/>
            <text x="15" y="20" fill="blue">4</text>
            <text x="67" y="105" fill="blue">5</text>
            <text x="118" y="20" fill="blue">4</text>
        </g>
    </g>
    <g transform="translate(0, 250)">
        <g transform="translate(0, 0)">
            <polygon points="0,0 71,123 142,0" fill="none" stroke="black" stroke-width="1"/>
            <text x="15" y="20" fill="blue">3</text>
            <text x="67" y="105" fill="blue">3</text>
            <text x="118" y="20" fill="blue">3</text>
        </g>

        <g transform="translate(73, 0)">
            <polygon points="0,123 71,0 142,123" fill="none" stroke="black" stroke-width="1"/>
            <text x="15" y="115" fill="blue">3</text>
            <text x="67" y="20" fill="blue">3</text>
            <text x="118" y="115" fill="blue">1</text>
        </g>

        <g transform="translate(146, 0)">
            <polygon points="0,0 71,123 142,0" fill="none" stroke="black" stroke-width="1"/>
            <text x="15" y="20" fill="blue">3</text>
            <text x="67" y="105" fill="blue">1</text>
            <text x="118" y="20" fill="blue">5</text>
        </g>
    </g>
</svg>
