<?xml version="1.0" encoding="UTF-8"?>
<!DOCTYPE svg PUBLIC "-//W3C//DTD SVG 1.1//EN" "http://www.w3.org/Graphics/SVG/1.1/DTD/svg11.dtd">
<svg xmlns="http://www.w3.org/2000/svg" version="1.1" width="509" height="375" font-size="12">
    <g>
        <g transform="translate(-73, 0)">
            <polygon points="0,0 71,123 142,0" fill="none" stroke="black" stroke-width="1"/>
        </g>

        <g transform="translate(0, 0)">
            <polygon points="0,123 71,0 142,123" fill="none" stroke="black" stroke-width="1"/>
        </g>

        <g transform="translate(73, 0)">
            <polygon points="0,0 71,123 142,0" fill="none" stroke="black" stroke-width="1"/>
        </g>

        <g transform="translate(146, 0)">
            <polygon points="0,123 71,0 142,123" fill="none" stroke="black" stroke-width="1"/>
            <text x="32" y="90" fill="darkorange">left-to-opposite</text>
        </g>

        <g transform="translate(219, 0)">
            <polygon points="0,0 71,123 142,0" fill="none" stroke="black" stroke-width="1"/>
            <text x="45" y="55" fill="darkorange">opposite</text>
        </g>

        <g transform="translate(292, 0)">
            <polygon points="0,123 71,0 142,123" fill="none" stroke="black" stroke-width="1"/>
            <text x="30" y="90" fill="darkorange">right-to-opposite</text>
        </g>

        <g transform="translate(365, 0)">
            <polygon points="0,0 71,123 142,0" fill="none" stroke="black" stroke-width="1"/>
        </g>

        <g transform="translate(438, 0)">
            <polygon points="0,123 71,0 142,123" fill="none" stroke="black" stroke-width="1"/>
        </g>
    </g>
    <g transform="translate(-73, 125)">
        <g transform="translate(0, 0)">
            <polygon points="0,123 71,0 142,123" fill="none" stroke="black" stroke-width="1"/>
        </g>

        <g transform="translate(73, 0)">
            <polygon points="0,0 71,123 142,0" fill="none" stroke="black" stroke-width="1"/>
        </g>

        <g transform="translate(146, 0)">
            <polygon points="0,123 71,0 142,123" fill="none" stroke="black" stroke-width="1"/>
            <text x="50" y="80" fill="darkorange">far-left</text>
        </g>

        <g transform="translate(219, 0)">
            <polygon points="0,0 71,123 142,0" fill="none" stroke="black" stroke-width="1"/>
            <text x="60" y="55" fill="darkorange">left</text>
        </g>

        <g transform="translate(292, 0)">
            <polygon points="0,123 71,0 142,123" fill="slateblue" stroke="black" stroke-width="1"/>
            <text x="60" y="80" fill="darkorange" font-weight="bold" font-size="14">X / Y</text>
        </g>

        <g transform="translate(365, 0)">
            <polygon points="0,0 71,123 142,0" fill="none" stroke="black" stroke-width="1"/>
            <text x="60" y="55" fill="darkorange">right</text>
        </g>

        <g transform="translate(438, 0)">
            <polygon points="0,123 71,0 142,123" fill="none" stroke="black" stroke-width="1"/>
            <text x="50" y="80" fill="darkorange">far-right</text>
        </g>

        <g transform="translate(511, 0)">
            <polygon points="0,0 71,123 142,0" fill="none" stroke="black" stroke-width="1"/>
        </g>
    </g>
    <g transform="translate(0, 250)">
        <g transform="translate(-73, 0)">
            <polygon points="0,0 71,123 142,0" fill="none" stroke="black" stroke-width="1"/>
        </g>

        <g transform="translate(0, 0)">
            <polygon points="0,123 71,0 142,123" fill="none" stroke="black" stroke-width="1"/>
        </g>

        <g transform="translate(73, 0)">
            <polygon points="0,0 71,123 142,0" fill="none" stroke="black" stroke-width="1"/>
            <text x="27" y="35" fill="darkorange">far-left-to-middle</text>
        </g>

        <g transform="translate(146, 0)">
            <polygon points="0,123 71,0 142,123" fill="none" stroke="black" stroke-width="1"/>
            <text x="38" y="90" fill="darkorange">left-to-middle</text>
        </g>

        <g transform="translate(219, 0)">
            <polygon points="0,0 71,123 142,0" fill="none" stroke="black" stroke-width="1"/>
            <text x="60" y="55" fill="darkorange">middle</text>
        </g>

        <g transform="translate(292, 0)">
            <polygon points="0,123 71,0 142,123" fill="none" stroke="black" stroke-width="1"/>
            <text x="34" y="90" fill="darkorange">right-to-middle</text>
        </g>

        <g transform="translate(365, 0)">
            <polygon points="0,0 71,123 142,0" fill="none" stroke="black" stroke-width="1"/>
            <text x="25" y="35" fill="darkorange">far-right-to-middle</text>
        </g>

        <g transform="translate(438, 0)">
            <polygon points="0,123 71,0 142,123" fill="none" stroke="black" stroke-width="1"/>
        </g>
    </g>
</svg>

