<?xml version="1.0" encoding="UTF-8"?>
<!DOCTYPE svg PUBLIC "-//W3C//DTD SVG 1.1//EN" "http://www.w3.org/Graphics/SVG/1.1/DTD/svg11.dtd">
<svg xmlns="http://www.w3.org/2000/svg" version="1.1" width="500" height="249" font-size="12">
    <defs>
        <pattern id="diagonalHatch" width="10" height="10" patternTransform="rotate(55)" patternUnits="userSpaceOnUse"
                 stroke="#ccc">
            <line x1="0" y1="0" x2="0" y2="10"/>
        </pattern>
    </defs>
    <g>
        <g transform="translate(0, 0)">
            <polygon points="0,123 71,0 142,123" fill="none" stroke="black" stroke-width="1"/>
            <text x="15" y="115" fill="darkorange">4</text>
            <text x="67" y="20" fill="darkorange">0</text>
            <text x="118" y="115" fill="darkorange">4</text>
            <text x="60" y="80" fill="darkorange" font-size="14">-1 / -1</text>
        </g>

        <g transform="translate(73, 0)">
            <polygon points="0,0 71,123 142,0" fill="none" stroke="black" stroke-width="1"/>
            <text x="15" y="20" fill="darkorange">0</text>
            <text x="67" y="105" fill="darkorange">4</text>
            <text x="118" y="20" fill="darkorange">1</text>
            <text x="60" y="55" fill="darkorange" font-size="14">0 / -1</text>
        </g>

        <g transform="translate(146, 0)">
            <polygon points="0,123 71,0 142,123" fill="none" stroke="black" stroke-width="1"/>
            <text x="15" y="115" fill="darkorange">4</text>
            <text x="67" y="20" fill="darkorange">1</text>
            <text x="118" y="115" fill="darkorange">4</text>
            <text x="60" y="80" fill="darkorange" font-size="14">1 / -1</text>
        </g>
    </g>
    <g transform="translate(-73, 125)">
        <g transform="translate(73, 0)">
            <polygon points="0,0 71,123 142,0" fill="none" stroke="black" stroke-width="1"/>
            <text x="15" y="20" fill="darkorange">4</text>
            <text x="67" y="105" fill="darkorange">3</text>
            <text x="118" y="20" fill="darkorange">4</text>
            <text x="60" y="55" fill="darkorange" font-size="14">-1 / 0</text>
        </g>

        <g transform="translate(146, 0)">
            <polygon points="0,123 71,0 142,123" fill="url(#diagonalHatch)" stroke="none" stroke-width="1"/>
            <text x="60" y="80" fill="darkorange" font-weight="bold" font-size="14">0 / 0</text>
        </g>

        <g transform="translate(219, 0)">
            <polygon points="0,0 71,123 142,0" fill="none" stroke="black" stroke-width="1"/>
            <text x="15" y="20" fill="darkorange">4</text>
            <text x="67" y="105" fill="darkorange">5</text>
            <text x="118" y="20" fill="darkorange">4</text>
            <text x="60" y="55" fill="darkorange" font-size="14">1 / 0</text>
        </g>

        <g transform="translate(292, 0)">
            <polygon points="0,123 71,0 142,123" fill="url(#diagonalHatch)" stroke="none" stroke-width="1"/>
        </g>
        s

        <g transform="translate(365, 0)">
            <polygon points="0,0 71,123 142,0" fill="url(#diagonalHatch)" stroke="none" stroke-width="1"/>
            <text x="60" y="55" fill="darkorange" font-weight="bold" font-size="14">3 / 0</text>
        </g>

    </g>
</svg>
